<svg width="255" height="167" viewBox="0 0 255 167" fill="none" xmlns="http://www.w3.org/2000/svg">
<g clip-path="url(#clip0_40_5)">
<path fill-rule="evenodd" clip-rule="evenodd" d="M0 0.550011C0 1.13101 12.582 23.311 54.144 96C68.139 120.475 82.944 146.461 87.044 153.746C91.145 161.032 94.914 166.856 95.42 166.69C95.925 166.523 100.123 159.662 104.748 151.443C109.373 143.225 115.192 132.945 117.679 128.601L122.2 120.701L119.957 116.601C118.723 114.345 116.15 109.879 114.239 106.675L110.764 100.85L106.761 107.675C104.56 111.429 100.952 117.552 98.745 121.282L94.732 128.063L88.041 116.282C84.361 109.802 68.834 82.45 53.537 55.5C38.239 28.55 24.849 5.03801 23.78 3.25001L21.837 1.14441e-05H10.918C4.913 1.14441e-05 0 0.247011 0 0.550011ZM73.395 9.21901C76.332 14.323 89.188 37.175 101.965 60C114.741 82.825 129.132 108.475 133.945 117C138.758 125.525 146.344 139.025 150.802 147C155.261 154.975 159.492 162.289 160.204 163.252C161.346 164.796 163.897 160.811 181.645 129.752C218.326 65.564 250.679 8.56101 252.875 4.25001L255.041 1.14441e-05H244.199H233.356L228.039 9.75001C225.114 15.112 210.927 40.2 196.511 65.5C182.095 90.8 168.545 114.755 166.4 118.733C164.255 122.711 162.194 125.974 161.82 125.983C161.446 125.992 157.34 119.137 152.696 110.75C148.051 102.363 137.574 83.575 129.414 69C121.253 54.425 109.31 33.05 102.872 21.5L91.168 0.500011L79.612 0.219013L68.055 -0.0629883L73.395 9.21901ZM121.603 3.25001C122.514 5.03801 125.02 9.53701 127.173 13.25L131.088 20H144.07H157.052L152.838 27.75C150.52 32.013 147.506 37.3 146.139 39.5L143.654 43.5L148.139 51.937C150.606 56.578 153.065 60.522 153.603 60.701C154.421 60.974 188 2.26801 188 0.564011C188 0.254011 172.688 1.14441e-05 153.974 1.14441e-05H119.949L121.603 3.25001Z" fill="url(#paint0_linear_40_5)"/>
</g>
<defs>
<linearGradient id="paint0_linear_40_5" x1="127.52" y1="-0.0629883" x2="127.52" y2="166.693" gradientUnits="userSpaceOnUse">
<stop stop-color="#D9292E"/>
<stop offset="1" stop-color="#E0333A"/>
</linearGradient>
<clipPath id="clip0_40_5">
<rect width="255" height="167" fill="white"/>
</clipPath>
</defs>
</svg>
